# xmcd
#
# Track frame offsets: 
#        225
#        13231
#        27913
#        45805
#        56713
#        71871
#        82792
#        92909
#        112082
#        123708
#        131324
#        144309
#        159501
#        172855
#        182595
#        194148
#        208222
#        218067
#        228031
#        242142
#        253254
#        264016
#        284626
#        297415
#
# Disc length: 4132 seconds
#
# Revision: 0
# Processed by: cddbd v1.5.2PL0 Copyright (c) Steve Scherf et al.
# Submitted via: ExactAudioCopy v0.99pb4
#
DISCID=65102118
DTITLE=Various Artist - 101 Country Greats [Box Set] CD2
DYEAR=2003
DGENRE=Country
TTITLE0=Charlie Rich - Behind Closed Doors
TTITLE1=Lynn Anderson - Cry
TTITLE2=Bertie Higgins - Key Largo
TTITLE3=George Jones - Tender Years
TTITLE4=Johnny Lee - Counrty Party
TTITLE5=Gary Morris - Velvet Chains
TTITLE6=Barbara Mandrell - Please Release Me
TTITLE7=The Nitty Gritty Dirt Band - Mr. Bojangles
TTITLE8=Willie Nelson - Is There Something on Your Mind
TTITLE9=Dolly Parton - Puppy Love
TTITLE10=Charlie Rich - I Take It on Home
TTITLE11=Johnny Rodriguez - How Could I Love Her So Much
TTITLE12=Kenny Rogers, Kenny Rogers - Ruby, Don't Take Your Love to To
TTITLE12=wn
TTITLE13=Faron Young - Alone With You
TTITLE14=Kitty Wells - It Wasn't God Who Made Honky Tonk Angels
TTITLE15=Dottie West - What Are We Doin' in Love?
TTITLE16=Rex Allen, Jr. - Drink It Down Lady
TTITLE17=Bill Monroe and His Bluegrass Boys - Blue Moon of Kentucky
TTITLE18=Bobby Bare - Medley: 500 Miles Away from Home_Four Strong Win
TTITLE18=ds_Shame on Me
TTITLE19=Moe Bandy - It's a Cheating Situation
TTITLE20=Hoyt Axton - Boney Fingers
TTITLE21=Kenny Price - Que Pasa
TTITLE22=Jim Reeves - Bimbo
TTITLE23=Johnny Tillotson - It Keeps Right on Hurtin'
EXTD=
EXTT0=
EXTT1=
EXTT2=
EXTT3=
EXTT4=
EXTT5=
EXTT6=
EXTT7=
EXTT8=
EXTT9=
EXTT10=
EXTT11=
EXTT12=
EXTT13=
EXTT14=
EXTT15=
EXTT16=
EXTT17=
EXTT18=
EXTT19=
EXTT20=
EXTT21=
EXTT22=
EXTT23=
PLAYORDER=
